<svg xmlns="http://www.w3.org/2000/svg" viewBox="0 0 120 120">
  <g>
    <circle cx="38" cy="16" r="13" fill="#fdfaf2" stroke="#e4d2a8" stroke-width="1.5"/>
    <circle cx="60" cy="9" r="15" fill="#fdfaf2" stroke="#e4d2a8" stroke-width="1.5"/>
    <circle cx="82" cy="16" r="13" fill="#fdfaf2" stroke="#e4d2a8" stroke-width="1.5"/>
    <rect x="36" y="16" width="48" height="18" fill="#fdfaf2"/>
    <rect x="34" y="30" width="52" height="9" rx="4" fill="#f0e4c8" stroke="#e4d2a8" stroke-width="1.5"/>
  </g>
  <circle cx="60" cy="76" r="42" fill="#b0492f" stroke="#93371d" stroke-width="2"/>
  <g fill="#8a3520" opacity="0.85">
    <circle cx="34" cy="68" r="2.4"/><circle cx="44" cy="96" r="2.8"/><circle cx="62" cy="108" r="2.2"/>
    <circle cx="84" cy="92" r="2.6"/><circle cx="90" cy="70" r="2.2"/><circle cx="74" cy="50" r="2.1"/>
  </g>
  <g>
    <ellipse cx="48" cy="70" rx="8" ry="9" fill="#fdfaf2"/>
    <ellipse cx="72" cy="70" rx="8" ry="9" fill="#fdfaf2"/>
    <circle cx="49.5" cy="72" r="4" fill="#1a2840"/>
    <circle cx="70.5" cy="72" r="4" fill="#1a2840"/>
  </g>
  <ellipse cx="38" cy="84" rx="5" ry="3.4" fill="#d05a32" opacity="0.8"/>
  <ellipse cx="82" cy="84" rx="5" ry="3.4" fill="#d05a32" opacity="0.8"/>
  <path d="M 48 88 Q 60 100 72 88" fill="none" stroke="#1a2840" stroke-width="3" stroke-linecap="round"/>
</svg>
