<?xml version="1.0" standalone="no"?>
<!DOCTYPE svg PUBLIC "-//W3C//DTD SVG 20010904//EN"
 "http://www.w3.org/TR/2001/REC-SVG-20010904/DTD/svg10.dtd">
<svg version="1.0" xmlns="http://www.w3.org/2000/svg"
 width="1894.000000pt" height="830.000000pt" viewBox="150 151 1680 300"
 preserveAspectRatio="xMidYMid meet">

<g transform="translate(0.000000,830.000000) scale(0.100000,-0.100000)"
fill="#223453" stroke="none">
<path d="M13560 6331 c-142 -46 -283 -242 -413 -571 -124 -317 -198 -631 -243
-1030 -12 -108 -22 -161 -33 -174 -9 -10 -53 -50 -98 -88 -77 -64 -83 -72 -83
-107 0 -68 66 -105 135 -77 21 9 40 14 43 11 14 -14 -66 -804 -104 -1025 -28
-159 -95 -448 -116 -500 l-14 -34 -205 -23 c-502 -56 -847 -145 -1046 -269
-39 -25 -83 -58 -97 -75 -77 -92 -47 -198 73 -258 114 -57 244 -81 444 -81
160 0 273 18 419 67 208 69 382 209 482 386 27 48 52 90 57 92 4 3 145 10 312
16 317 12 799 2 1093 -22 125 -10 143 -10 172 5 54 28 56 103 3 131 -63 32
-390 49 -974 50 -301 0 -547 3 -547 8 0 4 9 40 20 80 89 316 136 648 179 1239
l27 386 60 64 c182 197 348 439 474 693 224 453 291 794 195 1002 -37 82 -136
130 -215 104z m71 -188 c10 -12 14 -50 13 -147 0 -116 -4 -145 -33 -251 -81
-299 -249 -631 -454 -897 -33 -43 -63 -76 -66 -73 -9 5 -6 28 25 220 35 211
58 309 110 475 68 214 150 404 237 545 81 133 132 172 168 128z m-1091 -3595
c0 -6 -14 -34 -32 -61 -70 -110 -252 -222 -433 -268 -177 -45 -547 -26 -618
31 -30 25 -17 45 52 80 189 95 534 175 941 219 41 5 78 9 83 10 4 0 7 -4 7
-11z"/>
<path d="M3366 5925 c-86 -31 -148 -105 -234 -280 -156 -316 -256 -788 -284
-1350 l-11 -230 -70 -105 c-240 -359 -517 -655 -653 -694 -14 -4 -28 0 -39 11
-16 15 -17 31 -12 133 6 123 41 270 112 479 43 128 45 178 9 212 -31 29 -88
32 -127 6 -30 -19 -38 -44 -116 -344 -68 -261 -161 -479 -306 -720 -60 -99
-41 -173 44 -173 58 0 83 27 156 170 36 72 68 130 70 130 3 0 20 -17 39 -37
32 -35 38 -37 102 -41 122 -7 235 55 412 223 115 110 326 366 382 465 5 8 11
13 14 10 2 -3 14 -64 26 -135 39 -238 119 -433 214 -524 58 -54 151 -91 230
-91 100 1 231 49 349 129 119 81 139 108 117 161 -14 33 -59 55 -92 45 -13 -4
-50 -27 -83 -52 -122 -90 -248 -134 -327 -113 -143 39 -242 308 -263 720 l-7
125 83 140 c220 374 402 815 486 1180 23 101 26 361 4 415 -47 119 -131 170
-225 135z m66 -202 c29 -73 3 -303 -57 -513 -67 -231 -328 -825 -349 -792 -11
19 32 354 70 537 71 342 163 603 266 753 34 49 54 53 70 15z"/>
<path d="M15635 5165 c-173 -93 -365 -520 -444 -990 -26 -153 -48 -338 -56
-485 l-7 -115 -57 -59 c-72 -75 -184 -165 -262 -211 -250 -146 -429 -71 -429
181 0 40 5 85 11 101 14 38 49 238 49 286 0 52 -13 73 -54 87 -43 14 -78 5
-111 -27 l-25 -26 -58 26 c-110 48 -212 43 -336 -16 -143 -68 -263 -194 -346
-362 -76 -154 -94 -254 -64 -356 39 -132 169 -189 325 -143 114 34 209 97 352
233 42 41 79 72 81 70 2 -2 13 -28 24 -57 57 -149 184 -235 347 -234 134 0
253 48 423 169 42 30 92 69 109 86 18 17 35 28 39 25 3 -3 11 -35 19 -71 18
-84 44 -135 94 -180 116 -104 287 -66 511 114 55 44 119 103 143 130 23 27 45
49 49 49 4 0 10 -21 14 -47 19 -131 80 -225 176 -268 54 -25 76 -29 148 -29
137 0 243 49 363 169 73 73 166 212 196 293 19 50 28 63 50 68 163 36 475 194
526 267 20 29 19 80 -2 99 -41 36 -89 30 -145 -17 -67 -57 -292 -165 -341
-165 -10 0 -16 20 -21 72 -15 164 -106 261 -267 287 -100 16 -226 -11 -356
-77 -66 -34 -147 -116 -221 -225 -151 -221 -292 -385 -420 -488 -86 -69 -181
-119 -228 -119 -72 0 -110 72 -121 231 -6 84 -5 86 24 120 174 204 399 618
496 914 100 304 90 594 -24 675 -42 31 -131 38 -174 15z m95 -216 c40 -164
-73 -560 -250 -880 -78 -139 -152 -251 -160 -242 -10 10 21 231 56 403 49 245
101 404 190 587 45 92 114 183 139 183 7 0 18 -22 25 -51z m960 -1014 c16 -8
37 -26 46 -39 20 -32 29 -123 15 -160 l-12 -29 -88 6 c-50 4 -113 16 -143 27
-58 21 -128 78 -128 103 0 26 100 91 165 108 40 11 108 3 145 -16z m-2538
-175 c36 -36 40 -44 35 -76 -12 -71 -170 -278 -291 -382 -61 -51 -140 -92
-195 -99 -55 -8 -91 27 -91 90 0 94 55 221 144 334 94 117 188 172 295 173 61
0 65 -2 103 -40z m2145 -90 c70 -62 179 -101 316 -115 37 -4 67 -11 67 -16 0
-19 -49 -106 -93 -164 -105 -139 -262 -209 -357 -160 -62 32 -93 144 -70 257
17 90 76 228 96 228 4 0 22 -14 41 -30z"/>
<path d="M2158 4685 c-61 -34 -78 -130 -32 -184 44 -53 123 -54 175 -1 24 24
29 37 29 79 0 41 -5 56 -28 82 -34 38 -100 49 -144 24z"/>
<path d="M6545 4244 c-151 -37 -251 -150 -330 -376 -19 -53 -41 -143 -49 -199
-17 -113 -32 -145 -125 -261 -71 -90 -129 -142 -199 -176 -49 -25 -55 -26 -80
-11 -54 30 -66 94 -82 429 -15 313 -39 403 -122 457 -38 25 -50 28 -132 28
-130 0 -198 -34 -323 -161 -107 -108 -102 -112 -77 71 17 127 15 154 -18 185
-26 24 -84 27 -115 5 -30 -21 -39 -56 -63 -250 -12 -93 -41 -313 -66 -488 -57
-411 -57 -421 5 -447 38 -15 93 1 114 34 8 12 31 83 50 157 98 371 225 611
368 696 73 43 130 52 157 25 33 -33 41 -83 52 -312 12 -244 24 -363 45 -436
40 -140 140 -197 280 -159 81 22 167 78 268 176 44 44 82 79 84 79 1 0 17 -27
33 -61 43 -85 99 -141 171 -174 108 -48 221 -44 334 13 97 49 225 197 281 327
10 22 27 76 38 120 l21 80 44 7 c105 18 253 80 343 143 25 19 49 31 52 28 6
-7 5 -21 -45 -372 -22 -151 -39 -284 -39 -297 0 -13 11 -35 24 -51 19 -22 32
-28 65 -28 63 0 85 29 121 160 121 435 234 645 393 729 91 48 142 44 171 -13
17 -32 36 -222 36 -366 0 -119 15 -257 36 -340 42 -167 160 -215 324 -133 78
38 212 165 297 280 36 49 67 87 69 85 2 -1 -7 -76 -19 -166 -19 -146 -20 -165
-6 -189 30 -54 101 -64 147 -22 12 11 31 53 42 92 81 278 169 504 238 604 95
140 245 225 323 184 10 -6 28 -29 39 -51 18 -34 22 -70 30 -242 19 -401 52
-522 158 -584 39 -24 58 -28 118 -28 63 0 80 5 159 44 74 37 105 60 190 145
55 55 132 143 170 195 l70 94 8 -44 c38 -220 109 -344 232 -405 261 -127 586
111 685 502 10 40 12 41 67 53 129 29 308 116 397 193 32 28 38 39 38 73 0 72
-68 98 -133 50 -79 -57 -188 -117 -248 -135 -87 -27 -101 -26 -101 8 -1 51
-30 167 -57 222 -55 112 -152 185 -281 210 -116 23 -263 -8 -355 -76 -55 -40
-82 -76 -266 -360 -262 -404 -352 -513 -474 -574 -69 -34 -93 -37 -126 -14
-47 34 -62 119 -81 459 -10 181 -22 250 -55 315 -71 140 -233 166 -418 67 -59
-31 -167 -126 -200 -176 -9 -14 -19 -23 -21 -20 -3 2 2 69 11 147 16 152 14
181 -17 212 -28 28 -91 27 -125 -2 -22 -20 -29 -41 -50 -166 -28 -161 -62
-245 -175 -432 -158 -263 -297 -410 -387 -410 -29 0 -36 5 -48 34 -19 45 -32
174 -45 432 -12 252 -29 327 -90 385 -78 75 -197 78 -339 8 -67 -33 -100 -58
-167 -126 -46 -47 -84 -79 -84 -72 0 8 7 61 15 119 21 153 20 194 -8 225 -17
20 -32 27 -60 27 -53 0 -84 -24 -98 -74 -21 -79 -61 -143 -138 -218 -43 -44
-102 -89 -136 -107 -68 -36 -176 -69 -198 -60 -9 3 -16 28 -20 74 -25 279
-250 442 -522 377z m200 -165 c81 -23 155 -141 155 -249 0 -50 0 -50 -32 -50
-72 0 -176 39 -252 94 -43 31 -57 36 -107 36 -32 0 -60 4 -63 8 -10 16 33 71
88 112 78 59 130 71 211 49z m4519 -18 c65 -41 116 -145 116 -239 l0 -45 -62
5 c-84 7 -164 37 -236 88 -59 41 -61 41 -121 34 -44 -5 -61 -3 -61 5 0 36 118
141 187 167 50 19 134 11 177 -15z m-335 -286 c67 -71 269 -155 375 -155 60 0
67 -7 55 -60 -16 -73 -89 -199 -149 -260 -66 -67 -116 -92 -190 -98 -48 -3
-61 1 -101 26 -87 56 -131 202 -109 361 14 104 56 221 78 221 4 0 22 -16 41
-35z m-4465 -4 c3 -5 37 -27 76 -51 84 -49 193 -88 272 -97 31 -3 61 -9 66
-12 29 -18 -46 -198 -123 -293 -52 -65 -144 -118 -204 -118 -123 1 -201 116
-201 293 0 142 79 335 114 278z"/>
</g>
</svg>




