<?xml version="1.0" encoding="UTF-8"?>
<svg version="1.1" xmlns="http://www.w3.org/2000/svg" width="1597" height="439">
<path d="M0 0 C9.52605691 9.42899373 12.42246026 19.47047677 14.0625 32.375 C14.0625 33.695 14.0625 35.015 14.0625 36.375 C30.92825855 32.9659637 43.76251807 25.19094951 54.0625 11.375 C56.51469158 7.31278364 58.15557527 3.1829546 59.4375 -1.375 C60.52124005 -4.7485779 61.08769485 -5.64847702 63.8125 -8.1875 C67.6121584 -9.86811814 69.94828361 -10.14862754 74.0625 -9.625 C78.6625 -7.425 78.6625 -7.425 80.0625 -4.625 C80.15788029 -3.22129007 80.19323473 -1.81319515 80.1953125 -0.40625 C80.19724609 0.43969727 80.19917969 1.28564453 80.20117188 2.15722656 C80.19666016 3.0540918 80.19214844 3.95095703 80.1875 4.875 C80.18556641 5.77959961 80.18363281 6.68419922 80.18164062 7.61621094 C80.1428791 13.59625288 79.85362108 19.44159188 79.0625 25.375 C79.59617187 24.73433594 80.12984375 24.09367187 80.6796875 23.43359375 C90.3267348 12.23433987 101.69926919 4.02391456 116.75 2.375 C124.5762661 2.07614497 130.14301519 3.60936456 136.375 8.375 C144.29933983 15.79420263 145.13993379 27.25388369 145.4921875 37.49609375 C145.56403501 39.32839201 145.63648581 41.16066669 145.70947266 42.99291992 C145.76497284 44.42140762 145.76497284 44.42140762 145.82159424 45.87875366 C146.45297066 61.8598252 147.2623408 77.60076986 150.0625 93.375 C159.90324069 92.3479324 166.78764312 86.79673198 173.0625 79.375 C181.41612988 68.69929468 188.26617321 57.07978502 195.0625 45.375 C196.02929688 43.72371094 196.02929688 43.72371094 197.015625 42.0390625 C203.85737188 29.97961976 207.25292263 17.14808807 208.9375 3.4375 C209.7301487 -2.11775823 210.89636029 -4.87547426 215.0625 -8.625 C218.26423254 -10.22586627 221.58827059 -10.12417089 225.0625 -9.625 C227.8725346 -7.83136089 229.57190468 -6.60619065 231.0625 -3.625 C231.53331784 6.05446088 230.81901003 15.72949715 230.0625 25.375 C230.46339844 24.87871094 230.86429688 24.38242188 231.27734375 23.87109375 C239.52723184 14.01238394 249.57336603 6.84505313 262.0625 3.375 C279.37491591 1.84638833 279.37491591 1.84638833 286.0625 7.375 C296.0372091 16.15191794 297.89082389 27.91261014 298.89208984 40.61474609 C299.31388419 47.44684759 299.49517068 54.29532229 299.63354492 61.13842773 C299.90101147 71.9359528 300.75099993 82.38015893 305.0625 92.375 C311.49514576 94.01737764 315.37063248 92.62890009 321.0625 89.375 C331.40936577 82.86741652 337.94063421 73.01422988 344.81591797 63.16113281 C345.97741272 61.49691511 347.14661046 59.83808083 348.31640625 58.1796875 C355.74119985 47.58042938 362.70882563 36.68569218 369.625 25.75 C370.76838844 23.95677209 371.91445755 22.16525194 373.0625 20.375 C373.63266846 19.48119629 373.63266846 19.48119629 374.21435547 18.56933594 C382.56611065 5.53133625 390.44971546 -4.58310879 405.97998047 -9.19433594 C417.72935281 -11.62410063 431.69708561 -10.85581395 442.0625 -4.625 C452.68280195 3.2120504 459.9955476 13.13422571 462.0625 26.375 C462.12709042 28.14477761 462.14861065 29.91670152 462.125 31.6875 C462.11597656 32.57050781 462.10695313 33.45351562 462.09765625 34.36328125 C462.08025391 35.35908203 462.08025391 35.35908203 462.0625 36.375 C474.70498036 33.32917241 485.08903658 29.07210864 495.13671875 20.6328125 C498.7739119 18.25720156 502.90466695 18.64979656 507.0625 19.375 C509.6875 21.4375 509.6875 21.4375 511.0625 24.375 C511.51797688 28.70203033 511.43084597 31.71799519 509.0625 35.375 C497.05754656 45.44855715 477.23468816 57.375 461.0625 57.375 C460.815 58.633125 460.5675 59.89125 460.3125 61.1875 C455.80658002 81.07569852 444.60224904 97.5644307 428.0625 109.375 C419.11022712 114.56670927 408.07090982 116.98763161 397.921875 114.65234375 C391.41951426 112.81891555 386.1512987 110.87207792 381.0625 106.375 C381.0625 105.715 381.0625 105.055 381.0625 104.375 C380.4025 104.375 379.7425 104.375 379.0625 104.375 C370.98851301 93.91461291 367.60576872 83.33033478 366.0625 70.375 C361.41226198 74.81124476 357.79984494 79.70229587 354.05078125 84.92578125 C353.06658203 86.13814453 353.06658203 86.13814453 352.0625 87.375 C351.4025 87.375 350.7425 87.375 350.0625 87.375 C349.70671875 88.21804688 349.70671875 88.21804688 349.34375 89.078125 C347.77302303 91.89394042 345.84778536 93.85455416 343.5625 96.125 C342.7684375 96.92421875 341.974375 97.7234375 341.15625 98.546875 C339.0625 100.375 339.0625 100.375 337.0625 100.375 C336.7325 101.365 336.4025 102.355 336.0625 103.375 C326.71881184 110.37878669 316.42990452 116.11991535 304.4375 115.25 C298.39767016 114.32161626 293.83528393 112.02410133 289.375 107.875 C279.38156264 94.11299367 279.31540355 76.01232656 278.578125 59.6796875 C278.53894455 58.83318634 278.4997641 57.98668518 278.45939636 57.11453247 C278.2664673 52.85558369 278.09935665 48.59784182 277.97192383 44.33642578 C277.91005862 42.74510195 277.84781881 41.15379263 277.78515625 39.5625 C277.7648233 38.47930984 277.7648233 38.47930984 277.74407959 37.37423706 C277.50560603 31.94940112 275.96271514 28.8084499 273.0625 24.375 C265.14454897 23.4101433 260.14698639 24.63664641 253.6328125 29.2578125 C234.2397501 45.23203715 227.64884902 72.81989523 220.4921875 95.83203125 C219.50249057 98.9898963 218.50579987 102.14520927 217.484375 105.29296875 C217.25073242 106.01637451 217.01708984 106.73978027 216.77636719 107.48510742 C215.68712006 110.36878117 214.68229124 111.72039501 212.0625 113.375 C207.90294206 114.42074252 204.29248408 114.68903849 200.125 113.625 C198.0625 112.375 198.0625 112.375 196.0625 109.375 C195.14657574 98.99003522 196.55244039 88.63531576 198.0625 78.375 C197.58683594 79.06722656 197.11117188 79.75945312 196.62109375 80.47265625 C186.95602885 93.98238785 175.21821501 107.29170099 159.625 113.8125 C153.23181921 114.8219496 146.91629867 115.2734181 140.6875 113.3125 C132.24241063 107.07921975 129.99990667 99.42393362 128.0625 89.375 C127.42651338 84.29627679 127.15138043 79.23712416 126.9375 74.125 C126.86652084 72.74094746 126.79356797 71.35699487 126.71875 69.97314453 C126.56713661 67.15779864 126.42141729 64.34225654 126.28027344 61.52636719 C125.95071637 55.09568286 125.51648567 48.67305657 125.0625 42.25 C124.99144043 41.1372168 124.92038086 40.02443359 124.84716797 38.87792969 C124.3493181 31.43515006 124.3493181 31.43515006 122.0625 24.375 C118.4852307 22.58636535 114.84687223 23.44903658 111.0625 24.375 C92.65129655 32.68522405 84.77298641 51.99003148 77.96484375 69.84375 C74.94222884 78.32277365 72.74680111 87.08668675 70.41943359 95.77587891 C69.82022081 97.98171055 69.19447755 100.17837042 68.5625 102.375 C68.2221875 103.6125 67.881875 104.85 67.53125 106.125 C65.6312786 110.32919202 63.87150613 111.80043848 60.0625 114.375 C56.17227112 115.44428533 52.76604972 114.70432114 49.125 113 C47.0625 111.375 47.0625 111.375 46.0625 109.375 C45.01729636 99.89962932 46.84824004 90.64390122 48.41967773 81.33642578 C49.71702051 73.6371403 50.8444156 65.93516126 51.8125 58.1875 C51.93987549 57.19065186 52.06725098 56.19380371 52.19848633 55.16674805 C52.7670972 50.54016025 53.21954986 46.04723338 53.0625 41.375 C52.27488281 41.89449219 51.48726562 42.41398437 50.67578125 42.94921875 C43.07214397 47.81734628 35.66877643 51.49533336 27.0625 54.375 C26.11761719 54.6946875 25.17273438 55.014375 24.19921875 55.34375 C19.97899621 56.69422121 16.52483975 57.52426841 12.0625 57.375 C12.000625 58.591875 11.93875 59.80875 11.875 61.0625 C10.09691871 76.96505805 -0.47616897 94.80179953 -12.8203125 104.81640625 C-22.43329849 111.89312472 -32.7672864 116.53406796 -44.9375 115.375 C-57.2739018 113.03126534 -65.52320636 107.59225831 -72.9375 97.375 C-74.35088421 94.34248578 -75.14591657 91.64687816 -75.9375 88.375 C-76.5975 88.375 -77.2575 88.375 -77.9375 88.375 C-78.19789063 88.95894531 -78.45828125 89.54289062 -78.7265625 90.14453125 C-84.59782596 100.95901975 -98.86476104 110.55299721 -110.44921875 114.15625 C-117.73502638 115.9023494 -124.02926052 115.31593624 -130.9375 112.375 C-137.74176562 107.94488462 -140.53427395 100.80495348 -142.50488281 93.17944336 C-142.94238856 90.91595152 -143.27207842 88.66206997 -143.5625 86.375 C-143.68238281 85.48925293 -143.80226563 84.60350586 -143.92578125 83.69091797 C-144.76099223 76.76787214 -145.15196262 69.84490453 -145.4609375 62.8828125 C-145.50223785 61.95273376 -145.54353821 61.02265503 -145.58609009 60.06439209 C-145.7891828 55.34298023 -145.96754371 50.62188796 -146.11572266 45.8984375 C-146.18129353 44.12239504 -146.24688513 42.34635334 -146.3125 40.5703125 C-146.33122162 39.76264435 -146.34994324 38.9549762 -146.36923218 38.12283325 C-146.57130138 32.98153373 -147.0930652 26.2194348 -150.9375 22.375 C-159.70000263 22.28098173 -165.383341 25.78023253 -171.9375 31.375 C-182.72159239 43.88110316 -188.97351188 58.83725036 -193.9375 74.375 C-194.28296875 75.43976563 -194.6284375 76.50453125 -194.984375 77.6015625 C-196.55904001 82.59660644 -198.00880853 87.61625499 -199.375 92.671875 C-199.76171875 94.08098145 -199.76171875 94.08098145 -200.15625 95.51855469 C-200.66702703 97.3860832 -201.16747716 99.25647495 -201.65625 101.12988281 C-202.99306992 106.00309999 -204.20388111 109.7580567 -207.9375 113.375 C-212.95782969 115.04844323 -217.15576645 115.24691216 -221.875 112.9375 C-225.52416974 108.40368305 -225.19149778 102.56776804 -224.58984375 96.94140625 C-224.36295015 95.27185032 -224.12371838 93.60394438 -223.875 91.9375 C-223.7414209 90.97779297 -223.6078418 90.01808594 -223.47021484 89.02929688 C-222.97177936 85.47598647 -222.45493643 81.92559319 -221.9375 78.375 C-221.35852481 74.36405937 -220.78221628 70.35273549 -220.2069397 66.34126282 C-219.56738768 61.88212496 -218.92417478 57.42358475 -218.2734375 52.96606445 C-216.93222352 43.72366035 -215.68377814 34.48103812 -214.61328125 25.203125 C-214.40163478 23.40753972 -214.18988525 21.61196659 -213.97802734 19.81640625 C-213.57893247 16.42524503 -213.20729706 13.03251575 -212.85009766 9.63671875 C-212.67060747 8.09623602 -212.49015881 6.55586456 -212.30859375 5.015625 C-212.24408524 4.32688293 -212.17957672 3.63814087 -212.1131134 2.92852783 C-211.44750835 -2.41011956 -209.59592233 -4.90080274 -205.9375 -8.625 C-202.87320224 -10.15714888 -200.3209358 -9.85438548 -196.9375 -9.625 C-193.3988006 -7.97360695 -192.12679847 -6.90894771 -189.9375 -3.625 C-189.13198063 5.82800676 -190.18236595 15.08219204 -191.9375 24.375 C-191.35355469 23.62089844 -190.76960938 22.86679688 -190.16796875 22.08984375 C-182.42458222 12.66488116 -169.46886796 2.6281368 -156.9375 1.375 C-148.8863937 0.74105462 -142.40661768 2.08407323 -135.625 6.5625 C-123.45834526 19.29504566 -125.32650877 40.97485631 -124.85351562 57.34399414 C-125.02093381 76.14425448 -125.02093381 76.14425448 -118.9375 93.375 C-112.97320884 92.96366958 -109.85510734 92.00466256 -104.9375 88.375 C-104.2775 88.375 -103.6175 88.375 -102.9375 88.375 C-102.73125 87.818125 -102.525 87.26125 -102.3125 86.6875 C-100.9375 84.375 -100.9375 84.375 -98.3125 82.3125 C-93.55052731 78.52853637 -90.23324298 73.4297426 -86.9375 68.375 C-86.51734619 67.7344165 -86.09719238 67.09383301 -85.66430664 66.43383789 C-81.9125706 60.28498598 -80.66044148 54.36080821 -79.5 47.3125 C-76.01150657 28.2872647 -69.76859313 7.61665214 -53.30859375 -4.23828125 C-36.55394649 -14.03712767 -14.78489808 -12.60122072 0 0 Z M-43.9375 17.375 C-43.9375 18.035 -43.9375 18.695 -43.9375 19.375 C-44.9275 19.705 -45.9175 20.035 -46.9375 20.375 C-48.14632096 22.37516466 -48.14632096 22.37516466 -48.9375 24.375 C-48.28265625 24.354375 -47.6278125 24.33375 -46.953125 24.3125 C-39.2682582 24.48616931 -35.1317196 26.92502553 -28.98828125 31.36328125 C-21.93403205 36.01493085 -14.32177098 38.01994392 -5.9375 37.375 C-6.28993204 28.93425265 -7.82029756 22.05170031 -13.375 15.5 C-18.82088015 10.98390427 -22.66585969 9.67264734 -29.7109375 9.8125 C-35.25801707 10.77954535 -39.72482599 13.7096419 -43.9375 17.375 Z M397.0625 24.375 C397.0625 24.705 397.0625 25.035 397.0625 25.375 C397.71734375 25.2821875 398.3721875 25.189375 399.046875 25.09375 C406.92783389 24.47039732 410.75613554 26.75092821 417.015625 31.33203125 C424.2556768 36.18657881 432.48835173 37.80339012 441.0625 38.375 C442.75596024 31.46617309 441.3616285 25.09533517 437.75 19 C434.89306577 14.82837037 431.92094563 11.99448188 427.0625 10.375 C413.31498019 8.93006549 405.90561495 14.2566368 397.0625 24.375 Z M393.0625 38.375 C386.46697462 51.34193096 384.81915625 66.88099137 388.25390625 81.09375 C390.43170793 87.23788615 393.52409424 92.01776428 399.4375 95 C405.5122983 97.21826806 410.26914907 96.3474088 416.0625 93.75 C425.2103568 88.79791216 431.44048534 81.35136515 435.75 72 C436.05744141 71.36578125 436.36488281 70.7315625 436.68164062 70.078125 C438.67136379 65.8113226 439.60827699 62.0625815 440.0625 57.375 C438.88107422 57.22804688 438.88107422 57.22804688 437.67578125 57.078125 C422.95768849 55.05765309 409.5138345 51.01185966 397.75390625 41.70703125 C396.24700392 40.52030217 394.6584498 39.43896653 393.0625 38.375 Z M-50.9375 40.375 C-58.61503051 52.20515707 -60.22132227 64.52472299 -57.9375 78.375 C-56.09229703 84.71390847 -53.64209323 90.36227945 -48.25 94.375 C-42.15342646 96.21547503 -36.45195873 96.41180635 -30.625 93.625 C-20.39512193 88.03296253 -12.35828976 76.47170824 -8.9375 65.375 C-8.41294032 62.67984856 -8.13724417 60.12148239 -7.9375 57.375 C-8.88109375 57.20484375 -9.8246875 57.0346875 -10.796875 56.859375 C-26.26669467 53.93936888 -37.85620902 49.09586065 -50.9375 40.375 Z " fill="#010101" transform="translate(538.9375,219.625)"/>
<path d="M0 0 C7.40086458 4.98584561 8.79476649 12.23577111 10.54296875 20.5 C13.62886047 57.53070062 -2.98842217 93.59863317 -20.70703125 125.1875 C-21.23707764 126.13471924 -21.76712402 127.08193848 -22.31323242 128.05786133 C-25.91919834 134.38621212 -29.87800653 140.34999505 -34.14453125 146.25 C-35.05493034 147.52586842 -35.96510892 148.80189424 -36.875 150.078125 C-38.10864705 151.79787159 -39.34387786 153.5164629 -40.58007812 155.234375 C-41.38885096 156.36229909 -42.19211658 157.49419677 -42.98925781 158.63037109 C-44.1057146 160.19558122 -45.27869262 161.71999596 -46.453125 163.2421875 C-49.99473754 169.54020518 -47.77874865 177.9819902 -46.26953125 184.8125 C-45.19921413 188.08291343 -44.32472263 190.58532164 -42.14453125 193.25 C-36.3777556 195.07777465 -32.34586242 192.75878339 -27.14453125 190.25 C-10.87224914 181.60822306 2.02594587 166.84739835 12.85546875 152.25 C13.45617188 151.44433594 14.056875 150.63867188 14.67578125 149.80859375 C19.26270776 143.57817333 23.65714173 137.22259434 27.99902344 130.82006836 C38.49741746 115.40700371 51.87120824 107.63255305 69.85546875 103.25 C81.86204407 102.12066866 93.32104682 103.09384165 103.35546875 110.5625 C111.39595011 119.20601746 113.23329131 127.64245138 112.85546875 139.25 C125.71238548 135.14076753 137.67020234 130.51191527 148.16796875 121.75 C151.6545321 119.00573723 154.46638361 118.4590365 158.87109375 118.80078125 C160.85546875 119.25 160.85546875 119.25 163.35546875 120.8125 C165.35680287 124.06466794 165.78857971 126.43732499 165.85546875 130.25 C159.46410384 143.32419271 142.03069131 150.30177201 129.23046875 155.5 C128.61268555 155.75168945 127.99490234 156.00337891 127.35839844 156.26269531 C124.33777929 157.4445384 121.45123244 158.33234443 118.26953125 158.98046875 C114.71277789 159.7170504 112.00242153 160.42160286 108.85546875 162.25 C106.54036049 165.78451643 105.05234431 169.28893547 103.53515625 173.2109375 C101.93515286 177.30592781 99.77971386 180.74617952 97.23046875 184.3125 C96.51632812 185.31410156 95.8021875 186.31570313 95.06640625 187.34765625 C92.73425949 190.40911393 90.42183721 193.38095353 87.85546875 196.25 C87.19546875 196.25 86.53546875 196.25 85.85546875 196.25 C85.51322266 197.11818359 85.51322266 197.11818359 85.1640625 198.00390625 C80.34609111 206.27355864 68.25173868 211.26995534 59.4453125 213.99609375 C49.76576988 216.40352716 40.4958289 215.57572295 31.515625 211.078125 C21.85432568 205.24896117 17.75815825 197.46014299 15.04296875 186.625 C14.63515397 184.83602248 14.2348705 183.04521803 13.85546875 181.25 C13.51257812 181.68828125 13.1696875 182.1265625 12.81640625 182.578125 C0.51432626 197.48606429 -17.61955262 212.20963376 -37.14453125 215.1875 C-44.15702604 215.64532211 -50.43130313 213.83698248 -56.45703125 210.3125 C-63.02105341 204.01407411 -65.97915291 193.83553515 -68.14453125 185.25 C-68.59828125 185.745 -69.05203125 186.24 -69.51953125 186.75 C-71.14453125 188.25 -71.14453125 188.25 -73.14453125 188.25 C-73.47453125 189.24 -73.80453125 190.23 -74.14453125 191.25 C-76.09209746 192.65881639 -78.1035349 193.98031041 -80.14453125 195.25 C-81.2325 195.97058594 -82.32046875 196.69117188 -83.44140625 197.43359375 C-98.82752415 207.52306874 -113.27568289 214.56691492 -132.14453125 212.25 C-142.96001917 209.6803223 -150.59579161 204.61149742 -156.51953125 195.25 C-158.73584325 191.31122813 -160.18626067 187.65804468 -161.14453125 183.25 C-161.80453125 183.25 -162.46453125 183.25 -163.14453125 183.25 C-163.39589844 183.82492187 -163.64726563 184.39984375 -163.90625 184.9921875 C-171.13465414 198.17205372 -189.86543405 209.81388159 -204.00390625 214.12109375 C-213.00537359 216.09868885 -221.78508579 215.8297305 -229.9765625 211.21875 C-235.00625291 207.44966554 -237.2172315 202.03189926 -239.14453125 196.25 C-240.85921131 175.77182101 -232.71768256 158.1407895 -220.14453125 142.25 C-210.82805036 131.59835465 -197.81473483 120.54219295 -183.11694336 119.04321289 C-180.97596329 118.94708725 -178.85007031 118.92167891 -176.70703125 118.9375 C-175.95711914 118.94023926 -175.20720703 118.94297852 -174.43457031 118.94580078 C-169.04414024 119.04806145 -165.01436683 119.81508221 -160.14453125 122.25 C-159.15453125 122.641875 -158.16453125 123.03375 -157.14453125 123.4375 C-156.48453125 123.705625 -155.82453125 123.97375 -155.14453125 124.25 C-154.87640625 123.610625 -154.60828125 122.97125 -154.33203125 122.3125 C-153.14453125 120.25 -153.14453125 120.25 -150.14453125 119.25 C-145.53002142 118.72287435 -142.18479439 118.62150768 -138.14453125 121.0625 C-135.24257151 124.23651847 -134.92919926 126.91304672 -134.99316406 131.11376953 C-135.30575425 135.5253246 -136.19332319 139.8484428 -137.01953125 144.1875 C-137.19355469 145.13818359 -137.36757812 146.08886719 -137.546875 147.06835938 C-138.33295551 151.29281424 -139.16966401 155.4722729 -140.26171875 159.62890625 C-142.40553846 168.42236144 -141.02267811 176.1098086 -137.95703125 184.5 C-135.55430212 188.14552006 -133.27478588 190.01368632 -129.14453125 191.25 C-113.50236013 193.32656614 -101.90251535 186.32721924 -89.65625 177.4453125 C-87.99012367 176.1644945 -86.36272638 174.83203399 -84.7734375 173.45703125 C-82.14453125 171.25 -82.14453125 171.25 -78.921875 169.19921875 C-73.99117828 165.73801719 -70.75216671 162.23112231 -69.52050781 156.18847656 C-68.97743274 151.03574573 -68.79009062 145.90125508 -68.66162109 140.72631836 C-68.37747478 129.40227093 -67.10312679 118.48895295 -65.26953125 107.3125 C-65.14555969 106.53183167 -65.02158813 105.75116333 -64.89385986 104.94683838 C-62.25212691 88.33796667 -58.45246165 72.216009 -53.14453125 56.25 C-52.92039551 55.5590625 -52.69625977 54.868125 -52.46533203 54.15625 C-46.18126895 34.8561494 -36.82746633 10.61514857 -19.14453125 -0.75 C-12.35084311 -3.80022733 -6.44824889 -3.59206128 0 0 Z M-12.14453125 19.25 C-21.46548411 28.57095286 -26.93677564 41.09116799 -31.42236328 53.29492188 C-32.15275139 55.27225386 -32.91127706 57.23724218 -33.671875 59.203125 C-42.33754259 82.08521617 -47.17317748 107.82045278 -48.14453125 132.25 C-45.03070854 128.56184999 -42.61875836 124.7750699 -40.26953125 120.5625 C-39.56867118 119.31326141 -38.86684201 118.06456603 -38.1640625 116.81640625 C-37.65093506 115.9039917 -37.65093506 115.9039917 -37.12744141 114.97314453 C-35.78478908 112.61933427 -34.37369151 110.30985173 -32.95703125 108 C-28.32171865 100.29535879 -24.66294123 92.40738552 -21.53125 83.98046875 C-20.52007241 81.26025863 -19.48181508 78.56097654 -18.4140625 75.86328125 C-11.47020818 58.08649392 -7.30756629 40.48365659 -9.14453125 21.25 C-9.63953125 20.26 -9.63953125 20.26 -10.14453125 19.25 C-10.80453125 19.25 -11.46453125 19.25 -12.14453125 19.25 Z M58.85546875 132.25 C60.38583464 136.38198789 63.15229898 139.01468626 66.85546875 141.25 C74.9923022 144.66178374 83.16227759 144.59265133 91.85546875 144.25 C93.92139331 138.74086785 94.32007531 134.71798758 91.85546875 129.25 C88.97711117 125.86792984 86.88336383 123.47460863 82.38671875 122.9765625 C73.10290956 122.66550704 64.96605189 124.75064796 58.85546875 132.25 Z M-202.81640625 152.171875 C-211.23188371 162.33952553 -219.66728468 175.47091094 -219.14453125 189.0625 C-218.62102159 192.41296181 -218.30798601 193.09084668 -215.76953125 195.5625 C-208.58608952 196.92487688 -202.21307621 193.12271914 -196.26953125 189.3125 C-192.8771374 186.91005738 -189.97043453 184.31139522 -187.14453125 181.25 C-186.38140625 180.5075 -185.61828125 179.765 -184.83203125 179 C-170.42638424 164.78038947 -170.42638424 164.78038947 -163.14453125 146.8125 C-164.57383193 143.149917 -166.76394215 141.09654027 -170.14453125 139.25 C-182.8145289 135.28458089 -194.56866265 143.1524127 -202.81640625 152.171875 Z M43.85546875 149.25 C37.36279096 162.27737938 32.19721558 174.68583995 36.91796875 189.1875 C39.52636886 193.31045502 42.15858456 195.00622579 46.85546875 196.25 C53.30674795 196.69956649 58.38462556 194.41415213 63.85546875 191.25 C64.70109375 190.8375 65.54671875 190.425 66.41796875 190 C74.05725632 184.51538328 81.2377588 174.89230711 84.85546875 166.25 C84.85546875 165.26 84.85546875 164.27 84.85546875 163.25 C83.36660156 163.12044922 83.36660156 163.12044922 81.84765625 162.98828125 C69.11377191 161.73398339 57.40100912 159.30988428 47.52734375 150.60546875 C45.9552614 149.04007588 45.9552614 149.04007588 43.85546875 149.25 Z " fill="#010101" transform="translate(1425.14453125,119.75)"/>
<path d="M0 0 C7.19872265 5.99893554 10.00550114 13.55860623 10.86132812 22.71630859 C12.00739489 43.01547219 7.96206973 61.3991544 0.625 80.1875 C0.16818848 81.38656982 0.16818848 81.38656982 -0.29785156 82.60986328 C-4.69493252 94.14828682 -9.55328369 105.29709938 -15.375 116.1875 C-15.76977539 116.92774414 -16.16455078 117.66798828 -16.57128906 118.43066406 C-21.71437282 128.01312583 -27.11047324 137.28402649 -33.375 146.1875 C-33.76155762 146.7438916 -34.14811523 147.3002832 -34.54638672 147.87353516 C-40.98954636 157.14340426 -47.5621564 166.37362556 -55.53515625 174.40625 C-56.0780127 174.9623999 -56.62086914 175.5185498 -57.18017578 176.09155273 C-58.23255233 177.16077109 -59.30163018 178.21392431 -60.39013672 179.24633789 C-68.15356137 187.14926358 -66.97615675 200.13232594 -67.69308472 210.54803467 C-67.87846277 213.23774243 -68.07211546 215.9267479 -68.26782227 218.61572266 C-68.73742302 225.09030624 -69.19465608 231.56570456 -69.64013672 238.04199219 C-72.3690223 277.70025743 -77.65126261 316.83297611 -88.375 355.1875 C-87.37903809 355.1167627 -86.38307617 355.04602539 -85.35693359 354.97314453 C-70.69138798 354.02476101 -56.0253322 354.03372184 -41.33642578 354.05712891 C-37.75261511 354.06277175 -34.16887956 354.05946427 -30.58507156 354.05369854 C-5.82090624 354.01974982 18.95582094 354.25530053 43.625 356.625 C45.04031856 356.7485751 46.45568361 356.87161888 47.87109375 356.99414062 C49.22665642 357.11877438 50.58213007 357.24438121 51.9375 357.37109375 C53.10925781 357.47993896 54.28101563 357.58878418 55.48828125 357.70092773 C59.231619 358.2815996 62.28349042 359.22927887 65.375 361.4375 C67.20204478 363.9953627 67.43804274 366.07154565 67.625 369.1875 C66.60014022 373.19377007 65.14662619 375.0531811 61.625 377.1875 C58.76675211 378.1402493 57.33880984 378.26280919 54.4140625 378.1015625 C53.58003906 378.05773437 52.74601562 378.01390625 51.88671875 377.96875 C51.01660156 377.9171875 50.14648438 377.865625 49.25 377.8125 C48.00283203 377.74675781 48.00283203 377.74675781 46.73046875 377.6796875 C41.98733544 377.41978978 37.25724448 377.07758625 32.5234375 376.68359375 C24.56431002 376.06282615 16.60317733 375.82577519 8.625 375.625 C7.81731171 375.60415344 7.00962341 375.58330688 6.17745972 375.56182861 C-28.0168781 374.70215158 -62.19157216 375.0926053 -96.375 376.1875 C-96.67736572 376.95698975 -96.97973145 377.72647949 -97.29125977 378.51928711 C-104.84714322 397.12218197 -121.43607237 412.66753095 -139.375 421.1875 C-168.51069219 432.86506351 -203.55994593 436.45618185 -233.375 425.1875 C-240.31069259 422.18828158 -245.92750546 418.08248909 -249.375 411.1875 C-250.00802689 405.51101296 -249.93735205 400.59886525 -246.69140625 395.76953125 C-220.95464189 364.83959189 -162.26795144 362.1009824 -125.375 358.1875 C-122.12893649 357.9038304 -118.88488135 357.64246549 -115.63378906 357.42480469 C-113.2099499 357.25213626 -113.2099499 357.25213626 -110.375 356.1875 C-109.23636121 353.34545759 -108.30041432 350.614213 -107.4375 347.6875 C-107.17662598 346.82745361 -106.91575195 345.96740723 -106.64697266 345.08129883 C-104.1958237 336.85762603 -102.11130144 328.58989403 -100.375 320.1875 C-100.21290039 319.40697266 -100.05080078 318.62644531 -99.88378906 317.82226562 C-94.46620072 291.18842977 -92.04418284 264.10530535 -89.76953125 237.05834961 C-88.84184978 226.07161356 -87.74807634 215.12790526 -86.375 204.1875 C-86.95378906 204.51105469 -87.53257812 204.83460938 -88.12890625 205.16796875 C-91.49133769 206.69422024 -94.77733571 206.65240692 -98.375 206.1875 C-101.22078139 204.95020374 -102.80313811 203.8893305 -104.75 201.5 C-105.70258221 197.97544582 -105.6351654 194.58804683 -104.375 191.1875 C-100.36579308 186.69576906 -95.63480198 183.15403085 -90.8984375 179.46875 C-86.27236379 175.28666479 -85.00459189 171.56485568 -84.3828125 165.4296875 C-84.23641487 164.08170515 -84.09001163 162.7337234 -83.94360352 161.38574219 C-83.87166779 160.68106812 -83.79973206 159.97639404 -83.72561646 159.25036621 C-83.34092298 155.51988543 -82.90926226 151.79502847 -82.47265625 148.0703125 C-82.38445114 147.3177417 -82.29624603 146.5651709 -82.20536804 145.78979492 C-78.48234039 114.8077719 -70.87410972 83.92659445 -59.11083984 55.02197266 C-58.51198536 53.52900896 -57.94797247 52.02210615 -57.39453125 50.51171875 C-50.38837098 31.46680421 -38.80086751 8.13746846 -20.375 -1.8125 C-13.23173828 -4.92955966 -6.7021258 -3.59928978 0 0 Z M-13.375 17.1875 C-15.41619788 18.80344832 -17.41572937 20.4731382 -19.375 22.1875 C-19.375 22.8475 -19.375 23.5075 -19.375 24.1875 C-20.035 24.1875 -20.695 24.1875 -21.375 24.1875 C-23.00983153 26.5733033 -24.48996887 28.93963786 -25.9375 31.4375 C-26.6013269 32.57856201 -26.6013269 32.57856201 -27.27856445 33.74267578 C-43.99897316 63.10694372 -53.49269982 96.10640777 -59.375 129.1875 C-59.63071777 130.61255859 -59.63071777 130.61255859 -59.89160156 132.06640625 C-60.35893244 134.70873033 -60.80974251 137.35304203 -61.25 140 C-61.38245117 140.77641846 -61.51490234 141.55283691 -61.65136719 142.3527832 C-62.21889942 145.96084093 -62.40871025 148.69379058 -61.375 152.1875 C-53.0329354 141.18895404 -45.22821845 130.17029041 -38.375 118.1875 C-37.78589844 117.22199219 -37.19679688 116.25648437 -36.58984375 115.26171875 C-22.79173672 92.53727369 -8.94288786 63.22769888 -8.375 36.1875 C-8.33439453 34.88232422 -8.33439453 34.88232422 -8.29296875 33.55078125 C-8.21300938 28.68779765 -8.19229077 23.91833694 -9.375 19.1875 C-11.31097032 17.67455712 -11.31097032 17.67455712 -13.375 17.1875 Z M-226.375 404.1875 C-226.375 404.8475 -226.375 405.5075 -226.375 406.1875 C-224.56680934 406.84530202 -222.75314157 407.48805208 -220.9375 408.125 C-219.92816406 408.48464844 -218.91882813 408.84429687 -217.87890625 409.21484375 C-209.44860126 411.55502875 -200.81889667 411.37014307 -192.125 411.375 C-190.41763672 411.39336914 -190.41763672 411.39336914 -188.67578125 411.41210938 C-166.14438584 411.45047157 -144.61940248 405.31245834 -128.375 389.1875 C-127.83875 388.67703125 -127.3025 388.1665625 -126.75 387.640625 C-124.36070663 385.33666354 -122.19618625 382.96720532 -120.375 380.1875 C-120.375 379.5275 -120.375 378.8675 -120.375 378.1875 C-149.11885296 378.1875 -204.06172107 383.88442638 -226.375 404.1875 Z " fill="#010101" transform="translate(1216.375,4.8125)"/>
<path d="M0 0 C7.20844518 5.52828126 8.67308463 14.48872666 10 23 C12.94091488 48.1478232 3.53215575 77.10595894 -6 100 C-6.84079672 102.10587187 -7.67918588 104.21270602 -8.515625 106.3203125 C-13.27308607 118.19620375 -18.10788557 129.89176792 -24.07470703 141.21240234 C-25.00969014 143.01872064 -25.89901912 144.84130575 -26.77734375 146.67578125 C-32.40057934 158.35989928 -38.98813146 169.45811111 -45.61474609 180.59667969 C-46.07187988 181.38977539 -46.52901367 182.18287109 -47 183 C-47.58237427 183.99628418 -47.58237427 183.99628418 -48.17651367 185.01269531 C-49.86651847 189.09115338 -49.12536846 193.66705503 -48.9375 198 C-48.89004639 199.09562256 -48.84259277 200.19124512 -48.79370117 201.32006836 C-47.66985384 221.54218018 -45.42012906 249.20652531 -31 265 C-27.18832637 268.2890328 -23.24317811 269.61966543 -18.15625 269.31640625 C-6.97795925 267.67611359 2.68386507 262.1360653 11.44140625 255.19921875 C14.48466452 252.85766414 17.12627929 252.5942856 20.95703125 252.6640625 C23 253 23 253 26 255 C28.21779318 258.32668978 28.55858597 260.05864103 28.56640625 263.9375 C26.27206852 272.29205395 15.36294329 277.41479331 8.3828125 281.55078125 C-4.77518954 288.51805118 -18.41326488 291.79446184 -32.9609375 288.02734375 C-37.02302044 286.65417175 -40.8102618 284.9199114 -44 282 C-44 281.34 -44 280.68 -44 280 C-44.58007812 279.78601563 -45.16015625 279.57203125 -45.7578125 279.3515625 C-56.28815505 273.0040041 -60.9294981 253.66695168 -63.73413086 242.47973633 C-65.39114628 235.51838949 -66.65523818 228.53705319 -67.60546875 221.44140625 C-67.87512105 219.00075972 -67.87512105 219.00075972 -69 217 C-69.4846875 217.66644531 -69.969375 218.33289063 -70.46875 219.01953125 C-71.88800708 220.97100973 -73.30869596 222.92144735 -74.73046875 224.87109375 C-76.13964752 226.81386861 -77.5398468 228.76323168 -78.92578125 230.72265625 C-92.91435385 250.38775107 -113.99582886 277.56016707 -138.1875 284.5 C-145.83869601 285.50343554 -152.15327389 285.91241492 -159 282 C-160.04262599 280.6997274 -161.05146394 279.37042224 -162 278 C-162.28198242 278.54414551 -162.56396484 279.08829102 -162.85449219 279.64892578 C-164.14942954 282.14282028 -165.44966792 284.63391439 -166.75 287.125 C-167.1934375 287.9809375 -167.636875 288.836875 -168.09375 289.71875 C-175.31479818 303.52369505 -175.31479818 303.52369505 -182 307 C-185.89286343 307.64881057 -187.70570183 307.1332671 -191.3125 305.5 C-194.20118479 302.81285136 -194.82720464 301.18957457 -195.28515625 297.29296875 C-194.50348283 291.00745785 -190.62180261 285.53750654 -187.375 280.25 C-182.35200605 271.87342434 -178.06995457 263.26895911 -174.0703125 254.36328125 C-173.04221931 252.09322147 -171.97699594 249.84392662 -170.90625 247.59375 C-165.46195107 235.81032343 -162.55468281 223.7168078 -159.65625 211.09765625 C-158.21836651 204.84975012 -156.65283691 198.6598048 -154.875 192.5 C-154.65763184 191.70021729 -154.44026367 190.90043457 -154.21630859 190.07641602 C-152.76543914 185.18040083 -150.98730065 182.39901039 -147 179 C-146.67 178.67 -146.34 178.34 -146 178 C-141.04968147 177.35829204 -137.21800917 177.22942277 -132.9375 179.9375 C-129.98306617 184.60741154 -129.36080762 189.15102053 -130.57836914 194.57788086 C-131.49595856 197.41890382 -132.50927221 200.20645522 -133.5625 203 C-136.68083401 211.7639138 -139.30564412 220.50630644 -141.4375 229.5625 C-141.6837915 230.60212891 -141.93008301 231.64175781 -142.18383789 232.71289062 C-143.88952533 240.10521276 -145.14272985 247.19752953 -145.125 254.8125 C-145.12757813 255.93269531 -145.13015625 257.05289062 -145.1328125 258.20703125 C-145.19070909 260.95543569 -145.19070909 260.95543569 -144 263 C-138.44777048 261.81867457 -134.6262273 259.63658561 -130.015625 256.33984375 C-128 255 -128 255 -125 254 C-124.67 253.01 -124.34 252.02 -124 251 C-122.5390625 249.59765625 -122.5390625 249.59765625 -120.625 248.0625 C-111.28156508 240.10389561 -103.63064326 230.56801541 -96.31982422 220.76123047 C-94.9362379 218.9149131 -93.53424513 217.08371101 -92.12890625 215.25390625 C-90.08653032 212.5907362 -88.08853707 209.90076699 -86.11328125 207.1875 C-84.04711041 204.35449608 -81.88252924 201.66557295 -79.60546875 199 C-69.54703681 186.5959723 -69.71510284 175.03230928 -69.98193359 159.50927734 C-70.00764628 154.51476207 -69.65656443 149.59449934 -69.1875 144.625 C-69.10330811 143.71975586 -69.01911621 142.81451172 -68.93237305 141.88183594 C-65.74863734 109.41955465 -60.12887778 78.04222413 -50 47 C-49.69449219 46.05769531 -49.38898438 45.11539063 -49.07421875 44.14453125 C-43.30427221 27.34305696 -34.73037414 5.86518707 -18 -2.5 C-11.37405574 -3.60432404 -5.74406667 -3.95702371 0 0 Z M-13 18 C-17.39374596 23.62768512 -21.09908739 29.48683989 -24 36 C-24.67482422 37.47339844 -24.67482422 37.47339844 -25.36328125 38.9765625 C-32.82673236 55.75486344 -37.39132744 72.9225882 -41.29516602 90.84155273 C-41.76396093 92.94228007 -42.25398592 95.03838517 -42.76538086 97.12915039 C-44.6741423 104.96356505 -45.94443963 112.79408858 -46.93530273 120.78588867 C-47.18957732 122.829193 -47.45641787 124.87058984 -47.72460938 126.91210938 C-48.54611872 133.30198167 -49.23943863 139.55166987 -49 146 C-34.03647344 127.09870329 -25.64504586 98.63154371 -18 76 C-17.47986328 74.47632812 -17.47986328 74.47632812 -16.94921875 72.921875 C-12.56680726 59.4531509 -9.64845149 46.2635507 -9.625 32.0625 C-9.62258301 30.65013062 -9.62258301 30.65013062 -9.62011719 29.20922852 C-9.69159207 24.85998218 -9.80827934 21.84288977 -12 18 C-12.33 18 -12.66 18 -13 18 Z " fill="#020101" transform="translate(197,45)"/>
<path d="M0 0 C3.19306165 2.49922564 4.65952772 5.26083076 5.43359375 9.21484375 C5.75312508 14.87926276 4.3326571 18.46388339 1 23 C-3.77479564 26.15157593 -9.51557994 25.60771276 -15 25 C-18.32179766 23.20622926 -19.47908215 21.91780764 -21.3125 18.6875 C-22.50890068 14.01066099 -22.50436036 10.35380939 -20.8125 5.8125 C-18.54946529 2.30089442 -16.17347791 -0.25258038 -12.1484375 -1.63671875 C-7.91783786 -2.35207469 -3.98054263 -1.49833026 0 0 Z " fill="#010101" transform="translate(74,167)"/>
</svg>
